<?xml version="1.0" standalone="no"?><!DOCTYPE svg PUBLIC "-//W3C//DTD SVG 1.1//EN" "http://www.w3.org/Graphics/SVG/1.1/DTD/svg11.dtd"><svg t="1637824265617" class="icon" viewBox="0 0 1024 1024" version="1.1" xmlns="http://www.w3.org/2000/svg" p-id="3838" xmlns:xlink="http://www.w3.org/1999/xlink" width="200" height="200"><defs><style type="text/css"></style></defs><path d="M832 960H192a32 32 0 0 1-32-32V96a32 32 0 0 1 32-32h376a8 8 0 0 1 8 8v48a8 8 0 0 1-8 8H224v768h576V436.8a8 8 0 0 1 8-8h48a8 8 0 0 1 8 8V928a32 32 0 0 1-32 32z" fill="#264097" p-id="3839"></path><path d="M348.02 316.02m8 0l147.98 0q8 0 8 8l0 48q0 8-8 8l-147.98 0q-8 0-8-8l0-48q0-8 8-8Z" fill="#264097" p-id="3840"></path><path d="M348.02 480.02m8 0l147.98 0q8 0 8 8l0 48q0 8-8 8l-147.98 0q-8 0-8-8l0-48q0-8 8-8Z" fill="#264097" p-id="3841"></path><path d="M348.02 644.01m8 0l311.97 0q8 0 8 8l0 48q0 8-8 8l-311.97 0q-8 0-8-8l0-48q0-8 8-8Z" fill="#264097" p-id="3842"></path><path d="M886.25 139.47l-34-33.93a8 8 0 0 0-11.31 0L581.49 365a8 8 0 0 0 0 11.32l33.94 33.94a8 8 0 0 0 11.31 0l259.51-259.47a8 8 0 0 0 0-11.32z" fill="#264097" p-id="3843"></path></svg>